<svg id="svg" version="1.1" xmlns="http://www.w3.org/2000/svg" xmlns:xlink="http://www.w3.org/1999/xlink" width="400" height="400" viewBox="0, 0, 400,400"><g id="svgg"><path id="path0" d="M197.400 8.830 C 179.434 11.299,169.052 20.681,166.098 37.117 C 165.485 40.525,165.416 43.276,165.531 59.600 C 165.653 76.968,165.227 96.017,164.399 110.291 C 163.780 120.957,162.948 121.799,152.400 122.430 C 124.170 124.122,110.471 135.822,106.782 161.392 C 105.401 170.970,104.972 171.671,97.350 176.814 C 79.217 189.050,61.931 203.551,56.836 210.800 C 48.675 222.412,48.290 229.209,54.564 250.922 C 57.011 259.388,57.488 261.732,59.995 277.600 C 63.732 301.253,65.990 305.517,84.469 323.829 C 97.933 337.172,98.861 337.930,113.827 347.801 C 123.380 354.102,126.199 356.181,129.627 359.453 C 141.196 370.495,150.503 372.681,172.981 369.637 C 180.330 368.642,180.820 368.659,188.800 370.194 C 200.312 372.408,208.418 372.393,221.179 370.134 C 226.731 369.151,227.750 369.099,243.200 369.025 C 275.334 368.871,279.920 366.332,304.657 335.000 C 320.155 315.370,325.577 306.057,329.005 293.183 C 329.781 290.267,331.399 285.563,332.600 282.729 C 337.984 270.028,337.963 262.280,332.498 245.800 C 330.061 238.450,329.945 234.745,331.885 226.200 C 338.366 197.646,333.423 183.184,315.418 178.015 C 309.817 176.407,305.984 174.401,303.149 171.592 C 300.755 169.220,300.962 169.692,298.228 160.381 C 293.852 145.475,280.582 137.236,255.723 133.992 C 242.255 132.235,243.317 136.598,242.592 80.000 C 242.050 37.707,241.948 35.193,240.583 30.468 C 236.329 15.735,217.135 6.118,197.400 8.830 M213.916 27.305 C 219.849 29.066,223.167 32.192,224.635 37.404 C 225.224 39.496,225.351 43.458,225.636 68.600 C 226.281 125.507,226.765 158.214,226.974 159.000 C 227.091 159.440,227.459 164.210,227.791 169.600 C 228.814 186.196,230.336 186.968,231.797 171.633 C 233.510 153.653,239.936 148.593,257.260 151.584 C 278.219 155.201,284.403 161.521,281.543 176.400 C 280.684 180.868,278.640 183.812,274.166 187.027 C 266.474 192.555,264.600 197.447,264.600 212.000 C 264.600 224.321,264.845 224.876,274.176 233.700 C 283.406 242.429,283.307 242.544,283.643 222.618 C 284.042 198.898,286.127 190.889,292.340 189.216 C 295.510 188.363,297.662 189.663,300.590 194.202 C 303.163 198.191,303.870 198.531,306.945 197.262 C 317.805 192.780,320.949 205.670,314.541 228.400 C 313.071 233.614,312.681 235.630,312.686 238.000 C 312.692 241.110,312.736 241.270,316.749 252.910 C 321.678 267.207,320.136 276.800,312.909 276.800 C 310.474 276.800,309.447 275.912,306.807 271.528 C 304.137 267.094,302.649 266.433,298.933 268.031 C 294.026 270.141,290.663 268.343,286.800 261.546 C 284.296 257.139,282.824 256.810,279.809 259.981 C 274.505 265.560,261.308 266.787,248.023 262.937 C 241.055 260.918,237.832 258.299,234.588 252.019 C 231.065 245.197,230.491 245.149,225.870 251.290 C 222.990 255.116,220.416 256.884,214.025 259.423 C 204.341 263.271,204.981 264.367,219.371 268.573 C 230.922 271.949,234.137 273.853,237.037 279.039 C 238.820 282.229,239.066 282.221,241.736 278.900 C 248.717 270.215,259.497 268.156,270.200 273.464 C 278.527 277.593,278.723 282.279,271.386 301.848 C 264.687 319.715,263.672 323.430,264.955 325.387 C 267.720 329.607,271.816 321.733,279.396 297.629 C 285.740 277.452,289.421 274.054,300.698 277.963 C 319.388 284.441,316.738 296.351,288.810 331.400 C 271.534 353.080,268.926 354.698,250.626 355.089 C 237.232 355.376,235.414 354.794,232.477 349.283 C 230.270 345.143,230.093 345.178,226.324 350.507 C 222.124 356.447,215.594 358.424,202.000 357.873 C 188.541 357.328,184.612 354.525,181.807 343.468 C 177.736 327.420,176.646 318.010,176.159 294.728 C 175.777 276.422,176.108 274.856,181.662 268.704 C 184.902 265.116,185.067 264.224,182.706 263.070 C 179.516 261.511,163.769 261.407,159.423 262.917 C 156.473 263.942,156.588 264.383,160.876 268.495 C 166.909 274.279,167.662 276.307,171.159 296.200 C 174.596 315.748,174.812 317.664,175.069 331.000 C 175.507 353.714,174.414 355.908,162.211 356.828 C 148.510 357.861,141.857 354.109,147.400 348.477 C 151.726 344.082,149.173 341.637,140.851 342.206 C 133.361 342.718,130.370 341.699,120.410 335.242 C 101.358 322.890,96.696 317.343,98.996 309.764 C 100.178 305.866,100.335 305.994,94.500 306.102 C 82.883 306.316,80.069 300.916,75.224 269.110 C 73.765 259.535,73.368 257.775,70.596 248.600 C 63.967 226.657,65.645 222.472,88.161 204.800 C 110.357 187.379,113.717 186.467,118.450 196.581 C 124.304 209.092,120.630 219.861,106.463 231.710 C 98.676 238.224,100.408 242.516,109.551 239.361 C 119.644 235.877,122.049 245.672,113.305 254.647 C 107.062 261.055,106.926 263.634,112.347 272.910 C 117.933 282.468,117.794 285.456,111.397 293.400 C 105.884 300.247,106.086 300.976,112.857 298.670 C 122.566 295.364,125.445 297.139,133.382 311.323 C 141.792 326.353,139.896 311.970,130.597 290.200 C 122.706 271.725,123.828 268.470,138.953 265.971 C 149.374 264.249,149.621 263.736,141.927 259.800 C 128.942 253.156,127.816 250.818,127.189 229.200 C 126.947 220.871,126.617 215.583,126.215 213.600 C 125.859 211.846,125.359 205.202,125.011 197.600 C 124.684 190.450,124.221 182.890,123.982 180.800 C 121.335 157.615,127.018 144.981,141.794 141.202 C 154.575 137.933,165.466 139.804,169.988 146.046 C 173.359 150.700,173.519 152.691,173.066 184.400 C 172.506 223.561,172.474 220.174,173.420 221.441 C 175.254 223.894,177.235 223.725,178.600 220.998 C 179.359 219.481,179.404 218.506,179.486 201.800 C 179.571 184.413,180.009 164.397,180.780 142.600 C 181.647 118.074,182.201 89.056,182.223 67.000 C 182.253 36.864,182.799 33.866,189.037 29.575 C 194.267 25.976,205.873 24.918,213.916 27.305 M203.137 285.810 C 199.926 287.554,199.448 290.728,199.720 308.536 C 199.978 325.483,200.826 333.248,202.859 337.294 C 204.480 340.520,207.426 339.168,208.370 334.764 C 209.282 330.515,210.880 305.581,210.933 294.800 C 210.969 287.279,207.595 283.388,203.137 285.810 " stroke="none" fill="#e8e8e8" fill-rule="evenodd"></path><path id="path1" d="M128.400 2.553 C 68.282 24.190,21.522 71.613,1.553 131.200 L 0.012 135.800 0.006 200.019 L 0.000 264.237 1.543 268.819 C 21.832 329.052,69.214 376.829,129.520 397.863 L 135.640 399.997 200.000 399.994 L 264.360 399.991 270.221 397.966 C 330.490 377.147,377.854 329.442,398.444 268.819 L 400.000 264.237 400.000 199.968 L 400.000 135.699 398.168 130.349 C 377.602 70.295,330.750 23.399,269.887 1.950 L 264.375 0.007 199.887 0.021 L 135.400 0.034 128.400 2.553 M215.000 9.746 C 230.414 13.122,239.085 21.299,241.639 34.868 C 241.868 36.081,242.278 55.523,242.592 80.000 C 243.317 136.598,242.255 132.235,255.723 133.992 C 280.582 137.236,293.852 145.475,298.228 160.381 C 300.962 169.692,300.755 169.220,303.149 171.592 C 305.984 174.401,309.817 176.407,315.418 178.015 C 333.423 183.184,338.366 197.646,331.885 226.200 C 329.945 234.745,330.061 238.450,332.498 245.800 C 337.963 262.280,337.984 270.028,332.600 282.729 C 331.399 285.563,329.781 290.267,329.005 293.183 C 325.577 306.057,320.155 315.370,304.657 335.000 C 279.920 366.332,275.334 368.871,243.200 369.025 C 227.750 369.099,226.731 369.151,221.179 370.134 C 208.418 372.393,200.312 372.408,188.800 370.194 C 180.820 368.659,180.330 368.642,172.981 369.637 C 150.503 372.681,141.196 370.495,129.627 359.453 C 126.199 356.181,123.380 354.102,113.827 347.801 C 98.861 337.930,97.933 337.172,84.469 323.829 C 65.990 305.517,63.732 301.253,59.995 277.600 C 57.488 261.732,57.011 259.388,54.564 250.922 C 48.290 229.209,48.675 222.412,56.836 210.800 C 61.931 203.551,79.217 189.050,97.350 176.814 C 104.972 171.671,105.401 170.970,106.782 161.392 C 110.471 135.822,124.170 124.122,152.400 122.430 C 162.948 121.799,163.780 120.957,164.399 110.291 C 165.227 96.017,165.653 76.968,165.531 59.600 C 165.367 36.362,166.005 31.965,170.642 24.331 C 178.358 11.629,196.444 5.683,215.000 9.746 M196.800 26.580 C 189.690 28.105,186.024 30.882,184.008 36.271 C 182.376 40.632,182.247 42.849,182.223 67.000 C 182.201 89.056,181.647 118.074,180.780 142.600 C 180.009 164.397,179.571 184.413,179.486 201.800 C 179.404 218.506,179.359 219.481,178.600 220.998 C 177.235 223.725,175.254 223.894,173.420 221.441 C 172.474 220.174,172.506 223.561,173.066 184.400 C 173.519 152.691,173.359 150.700,169.988 146.046 C 165.466 139.804,154.575 137.933,141.794 141.202 C 127.018 144.981,121.335 157.615,123.982 180.800 C 124.221 182.890,124.684 190.450,125.011 197.600 C 125.359 205.202,125.859 211.846,126.215 213.600 C 126.617 215.583,126.947 220.871,127.189 229.200 C 127.816 250.818,128.942 253.156,141.927 259.800 C 149.621 263.736,149.374 264.249,138.953 265.971 C 123.828 268.470,122.706 271.725,130.597 290.200 C 139.896 311.970,141.792 326.353,133.382 311.323 C 125.445 297.139,122.566 295.364,112.857 298.670 C 106.086 300.976,105.884 300.247,111.397 293.400 C 117.794 285.456,117.933 282.468,112.347 272.910 C 106.926 263.634,107.062 261.055,113.305 254.647 C 122.049 245.672,119.644 235.877,109.551 239.361 C 100.408 242.516,98.676 238.224,106.463 231.710 C 120.630 219.861,124.304 209.092,118.450 196.581 C 113.717 186.467,110.357 187.379,88.161 204.800 C 65.645 222.472,63.967 226.657,70.596 248.600 C 73.368 257.775,73.765 259.535,75.224 269.110 C 80.069 300.916,82.883 306.316,94.500 306.102 C 100.335 305.994,100.178 305.866,98.996 309.764 C 96.696 317.343,101.358 322.890,120.410 335.242 C 130.370 341.699,133.361 342.718,140.851 342.206 C 149.173 341.637,151.726 344.082,147.400 348.477 C 141.857 354.109,148.510 357.861,162.211 356.828 C 174.414 355.908,175.507 353.714,175.069 331.000 C 174.812 317.664,174.596 315.748,171.159 296.200 C 167.662 276.307,166.909 274.279,160.876 268.495 C 156.588 264.383,156.473 263.942,159.423 262.917 C 163.769 261.407,179.516 261.511,182.706 263.070 C 185.067 264.224,184.902 265.116,181.662 268.704 C 176.108 274.856,175.777 276.422,176.159 294.728 C 176.646 318.010,177.736 327.420,181.807 343.468 C 184.612 354.525,188.541 357.328,202.000 357.873 C 215.594 358.424,222.124 356.447,226.324 350.507 C 230.093 345.178,230.270 345.143,232.477 349.283 C 235.414 354.794,237.232 355.376,250.626 355.089 C 268.926 354.698,271.534 353.080,288.810 331.400 C 316.738 296.351,319.388 284.441,300.698 277.963 C 289.421 274.054,285.740 277.452,279.396 297.629 C 271.816 321.733,267.720 329.607,264.955 325.387 C 263.672 323.430,264.687 319.715,271.386 301.848 C 278.723 282.279,278.527 277.593,270.200 273.464 C 259.497 268.156,248.717 270.215,241.736 278.900 C 239.066 282.221,238.820 282.229,237.037 279.039 C 234.137 273.853,230.922 271.949,219.371 268.573 C 204.981 264.367,204.341 263.271,214.025 259.423 C 220.416 256.884,222.990 255.116,225.870 251.290 C 230.491 245.149,231.065 245.197,234.588 252.019 C 237.832 258.299,241.055 260.918,248.023 262.937 C 261.308 266.787,274.505 265.560,279.809 259.981 C 282.824 256.810,284.296 257.139,286.800 261.546 C 290.663 268.343,294.026 270.141,298.933 268.031 C 302.649 266.433,304.137 267.094,306.807 271.528 C 309.447 275.912,310.474 276.800,312.909 276.800 C 320.136 276.800,321.678 267.207,316.749 252.910 C 312.736 241.270,312.692 241.110,312.686 238.000 C 312.681 235.630,313.071 233.614,314.541 228.400 C 320.949 205.670,317.805 192.780,306.945 197.262 C 303.870 198.531,303.163 198.191,300.590 194.202 C 297.662 189.663,295.510 188.363,292.340 189.216 C 286.127 190.889,284.042 198.898,283.643 222.618 C 283.307 242.544,283.406 242.429,274.176 233.700 C 264.845 224.876,264.600 224.321,264.600 212.000 C 264.600 197.447,266.474 192.555,274.166 187.027 C 278.640 183.812,280.684 180.868,281.543 176.400 C 284.403 161.521,278.219 155.201,257.260 151.584 C 239.936 148.593,233.510 153.653,231.797 171.633 C 230.336 186.968,228.814 186.196,227.791 169.600 C 227.459 164.210,227.091 159.440,226.974 159.000 C 226.765 158.214,226.281 125.507,225.636 68.600 C 225.243 33.892,225.227 33.796,219.397 29.780 C 214.816 26.625,203.840 25.071,196.800 26.580 M207.927 286.012 C 211.197 288.006,211.374 289.990,210.246 312.000 C 209.214 332.150,208.710 335.992,206.826 338.101 C 204.779 340.393,202.795 338.746,201.643 333.800 C 199.969 326.615,198.849 298.241,199.982 291.736 C 200.957 286.137,204.246 283.768,207.927 286.012 " stroke="none" fill="#040404" fill-rule="evenodd"></path></g></svg>